<svg width="96" height="96" viewBox="0 0 96 96" fill="none" xmlns="http://www.w3.org/2000/svg">
<g clip-path="url(#clip0_1137_414)">
<path d="M43.9579 14.5513H23.7474C22.9103 14.5513 22.2317 15.23 22.2317 16.067C22.2317 16.9042 22.9104 17.5828 23.7474 17.5828H43.9579C44.7951 17.5828 45.4736 16.904 45.4736 16.067C45.4736 15.23 44.7951 14.5513 43.9579 14.5513Z" fill="#626262" fill-opacity="0.56"/>
<path d="M56.0842 14.5513H52.0421C51.2047 14.5513 50.5264 15.23 50.5264 16.067C50.5264 16.9042 51.2047 17.5828 52.0421 17.5828H56.0842C56.9216 17.5828 57.6 16.904 57.6 16.067C57.6 15.23 56.9216 14.5513 56.0842 14.5513Z" fill="#626262" fill-opacity="0.56"/>
<path d="M39.9158 22.6357H23.7473C22.9101 22.6357 22.2315 23.3145 22.2315 24.1515C22.2315 24.9887 22.9103 25.6672 23.7473 25.6672H39.9158C40.7529 25.6672 41.4315 24.9885 41.4315 24.1515C41.4315 23.3145 40.7529 22.6357 39.9158 22.6357Z" fill="#626262" fill-opacity="0.56"/>
<path d="M60.1264 22.6357H48C47.1628 22.6357 46.4843 23.3145 46.4843 24.1515C46.4843 24.9887 47.163 25.6672 48 25.6672H60.1264C60.9638 25.6672 61.6421 24.9885 61.6421 24.1515C61.6421 23.3145 60.9636 22.6357 60.1264 22.6357Z" fill="#626262" fill-opacity="0.56"/>
<path d="M89.6929 46.4843H85.8947V19.7053C85.8947 19.671 85.8917 19.6373 85.8892 19.6033C85.8883 19.5898 85.8885 19.5759 85.887 19.5624C85.8808 19.4957 85.8698 19.4301 85.8549 19.3654C85.8516 19.3506 85.8471 19.3365 85.8431 19.3219C85.8294 19.2694 85.8128 19.2178 85.7936 19.1672C85.7876 19.1511 85.7818 19.1351 85.7752 19.119C85.7496 19.0577 85.7207 18.9977 85.6869 18.9403C85.6819 18.9317 85.6757 18.9232 85.6704 18.9146C85.6399 18.8649 85.6063 18.8171 85.5703 18.7712C85.5589 18.7566 85.5474 18.7423 85.5352 18.7279C85.491 18.6756 85.4443 18.6247 85.3928 18.5782L65.1823 0.389063C65.133 0.344625 65.0803 0.30525 65.0261 0.26775C65.0139 0.2595 65.0023 0.25125 64.9899 0.243375C64.9365 0.209062 64.8817 0.177562 64.8247 0.150187C64.815 0.1455 64.8049 0.14175 64.7951 0.13725C64.7441 0.114 64.6918 0.09375 64.6387 0.0765C64.6264 0.072375 64.6144 0.0680625 64.6018 0.064125C64.5422 0.0463125 64.4816 0.03225 64.4201 0.0219375C64.4066 0.0196875 64.3928 0.018 64.3791 0.0163125C64.3247 0.008625 64.2697 0.00375 64.2146 0.00225C64.2036 0.001875 64.1927 0.00075 64.1814 0.0005625C64.1771 0.0005625 64.1726 0 64.1685 0H16.7966C13.107 0 10.1053 3.00169 10.1053 6.69131V30.3392C4.4745 30.6894 0 35.3796 0 41.097V82.5546C0 89.9683 6.03169 96 13.4453 96H84.3789C84.4447 96 84.5109 95.9994 84.5767 95.9983C90.8756 95.8933 96 90.6062 96 84.2128V52.7916C96 49.3136 93.1708 46.4843 89.6929 46.4843ZM65.6843 4.91925L80.4289 18.1896H68.1443C66.7877 18.1896 65.6843 17.0861 65.6843 15.7296V4.91925ZM13.4453 92.9685C7.69388 92.9685 3.0315 88.3061 3.0315 82.5547V41.0968C3.0315 36.8167 6.501 33.3473 10.7811 33.3473H23.127C24.4873 33.3473 25.8217 33.8152 26.8839 34.6652L31.7417 38.5515C34.0633 40.4087 36.9793 41.4315 39.9521 41.4315H51.4665C52.3037 41.4315 52.9822 40.7528 52.9822 39.9158C52.9822 39.0788 52.3035 38.4 51.4665 38.4H39.9521C37.6648 38.4 35.4216 37.6131 33.6353 36.1843L28.7775 32.298C27.1736 31.0147 25.1809 30.3158 23.1268 30.3158H13.1368V6.69131C13.1368 4.67006 14.7752 3.03169 16.7964 3.03169H62.6526V15.7294C62.6526 18.7624 65.1114 21.2211 68.1443 21.2211H82.8632V76.7589C82.8632 77.8978 81.9399 78.8211 80.8011 78.8211H75.7894V45.6589C75.7894 41.6499 72.5394 38.4 68.5305 38.4H58.1499C57.3127 38.4 56.6342 39.0788 56.6342 39.9158C56.6342 40.7528 57.3129 41.4315 58.1499 41.4315H68.5305C70.8653 41.4315 72.7577 43.3239 72.7577 45.6587V84.3787C72.7577 87.5197 73.9911 90.4624 76.2309 92.6649C76.3359 92.7683 76.443 92.8695 76.551 92.9683H13.4453V92.9685ZM92.9685 84.2126C92.9685 88.9622 89.1814 92.8894 84.5263 92.967C82.197 93.0051 80.0113 92.1309 78.3566 90.5032C76.7012 88.8756 75.7896 86.7002 75.7896 84.3789V81.8526H80.8013C83.6098 81.8526 85.8949 79.5675 85.8949 76.7589V49.5158H89.6931C91.4993 49.5158 92.9685 50.9852 92.9685 52.7916V84.2126Z" fill="#626262" fill-opacity="0.56"/>
</g>
<defs>
<clipPath id="clip0_1137_414">
<rect width="96" height="96" fill="white"/>
</clipPath>
</defs>
</svg>
