<svg width="80" height="80" viewBox="0 0 80 80" fill="none" xmlns="http://www.w3.org/2000/svg">
<rect width="80" height="80" rx="16" fill="#3B82F6"/>
<path d="M63.8739 61.315L50.5674 26.25L52.9386 20H55.6516C56.2051 20 56.7359 19.7893 57.1272 19.4142C57.5186 19.0391 57.7385 18.5304 57.7385 18C57.7385 17.4696 57.5186 16.9609 57.1272 16.5858C56.7359 16.2107 56.2051 16 55.6516 16H30.6091C30.0556 16 29.5248 16.2107 29.1334 16.5858C28.742 16.9609 28.5222 17.4696 28.5222 18C28.5222 18.5304 28.742 19.0391 29.1334 19.4142C29.5248 19.7893 30.0556 20 30.6091 20H31.8038L16.1261 61.315C16.0322 61.562 15.99 61.8244 16.002 62.087C16.014 62.3497 16.0799 62.6076 16.1959 62.8458C16.312 63.084 16.4759 63.298 16.6783 63.4755C16.8808 63.6529 17.1177 63.7904 17.3756 63.88C17.6041 63.9587 17.845 63.9993 18.0878 64C18.5164 64 18.9345 63.8736 19.2855 63.6378C19.6365 63.4021 19.9032 63.0686 20.0495 62.6825L22.585 56H34.8454L32.8264 61.315C32.7324 61.562 32.6903 61.8244 32.7022 62.087C32.7142 62.3497 32.7801 62.6076 32.8962 62.8458C33.0122 63.084 33.1762 63.298 33.3786 63.4755C33.581 63.6529 33.818 63.7904 34.0759 63.88C34.3027 63.9582 34.5418 63.9987 34.7828 64C35.2114 64 35.6296 63.8736 35.9805 63.6378C36.3315 63.4021 36.5982 63.0686 36.7445 62.6825L41.5652 50H55.1299L59.9427 62.6825C60.0894 63.0698 60.3574 63.4042 60.7099 63.64C61.0624 63.8758 61.4823 64.0015 61.9122 64C62.155 63.9993 62.3959 63.9587 62.6244 63.88C62.8823 63.7904 63.1192 63.6529 63.3217 63.4755C63.5241 63.298 63.688 63.084 63.8041 62.8458C63.9201 62.6076 63.986 62.3497 63.998 62.087C64.01 61.8244 63.9678 61.562 63.8739 61.315ZM40.9182 40H28.6578L31.6916 32H43.952L40.9182 40ZM48.5066 20L45.4624 28H33.2176L36.2436 20H48.5066ZM24.1032 52L27.1396 44H39.4L36.348 52H24.1032ZM43.0729 46L48.3475 32.1025L53.6195 46H43.0729Z" fill="#E7E5E4"/>
</svg>
